<?xml version="1.0" encoding="UTF-8" standalone="no"?>
<!DOCTYPE svg PUBLIC "-//W3C//DTD SVG 1.1//EN"
 "http://www.w3.org/Graphics/SVG/1.1/DTD/svg11.dtd">
<!-- Generated by graphviz version 2.38.0 (20140413.2041)
 -->
<!-- Title: G Pages: 1 -->
<svg width="168pt" height="260pt"
 viewBox="0.00 0.00 167.84 260.00" xmlns="http://www.w3.org/2000/svg" xmlns:xlink="http://www.w3.org/1999/xlink">
<g id="graph0" class="graph" transform="scale(1 1) rotate(0) translate(4 256)">
<title>G</title>
<polygon fill="white" stroke="none" points="-4,4 -4,-256 163.844,-256 163.844,4 -4,4"/>
<!-- Season -->
<g id="node1" class="node"><title>Season</title>
<ellipse fill="none" stroke="black" cx="71.2976" cy="-234" rx="37.0935" ry="18"/>
<text text-anchor="middle" x="71.2976" y="-230.3" font-family="Times New Roman,serif" font-size="14.00">Season</text>
</g>
<!-- Rain -->
<g id="node2" class="node"><title>Rain</title>
<ellipse fill="none" stroke="black" cx="27.2976" cy="-162" rx="27.0966" ry="18"/>
<text text-anchor="middle" x="27.2976" y="-158.3" font-family="Times New Roman,serif" font-size="14.00">Rain</text>
</g>
<!-- Season&#45;&gt;Rain -->
<g id="edge1" class="edge"><title>Season&#45;&gt;Rain</title>
<path fill="none" stroke="black" d="M60.8702,-216.411C55.4779,-207.832 48.7889,-197.191 42.8041,-187.67"/>
<polygon fill="black" stroke="black" points="45.6322,-185.592 37.3472,-178.988 39.7058,-189.317 45.6322,-185.592"/>
</g>
<!-- Sprinkler -->
<g id="node5" class="node"><title>Sprinkler</title>
<ellipse fill="none" stroke="black" cx="116.298" cy="-162" rx="43.5923" ry="18"/>
<text text-anchor="middle" x="116.298" y="-158.3" font-family="Times New Roman,serif" font-size="14.00">Sprinkler</text>
</g>
<!-- Season&#45;&gt;Sprinkler -->
<g id="edge5" class="edge"><title>Season&#45;&gt;Sprinkler</title>
<path fill="none" stroke="black" d="M81.9619,-216.411C87.398,-207.955 94.1226,-197.494 100.176,-188.078"/>
<polygon fill="black" stroke="black" points="103.246,-189.774 105.71,-179.47 97.358,-185.989 103.246,-189.774"/>
</g>
<!-- Wet -->
<g id="node3" class="node"><title>Wet</title>
<ellipse fill="none" stroke="black" cx="71.2976" cy="-90" rx="27" ry="18"/>
<text text-anchor="middle" x="71.2976" y="-86.3" font-family="Times New Roman,serif" font-size="14.00">Wet</text>
</g>
<!-- Rain&#45;&gt;Wet -->
<g id="edge2" class="edge"><title>Rain&#45;&gt;Wet</title>
<path fill="none" stroke="black" d="M37.2819,-145.116C42.795,-136.345 49.7604,-125.264 55.9502,-115.416"/>
<polygon fill="black" stroke="black" points="58.9943,-117.15 61.3528,-106.821 53.0678,-113.425 58.9943,-117.15"/>
</g>
<!-- Slippery -->
<g id="node4" class="node"><title>Slippery</title>
<ellipse fill="none" stroke="black" cx="71.2976" cy="-18" rx="40.8928" ry="18"/>
<text text-anchor="middle" x="71.2976" y="-14.3" font-family="Times New Roman,serif" font-size="14.00">Slippery</text>
</g>
<!-- Wet&#45;&gt;Slippery -->
<g id="edge3" class="edge"><title>Wet&#45;&gt;Slippery</title>
<path fill="none" stroke="black" d="M71.2976,-71.6966C71.2976,-63.9827 71.2976,-54.7125 71.2976,-46.1124"/>
<polygon fill="black" stroke="black" points="74.7977,-46.1043 71.2976,-36.1043 67.7977,-46.1044 74.7977,-46.1043"/>
</g>
<!-- Sprinkler&#45;&gt;Wet -->
<g id="edge4" class="edge"><title>Sprinkler&#45;&gt;Wet</title>
<path fill="none" stroke="black" d="M105.633,-144.411C100.118,-135.832 93.2773,-125.191 87.1566,-115.67"/>
<polygon fill="black" stroke="black" points="89.9274,-113.507 81.5757,-106.988 84.0391,-117.293 89.9274,-113.507"/>
</g>
</g>
</svg>
